<svg id="Layer_1" data-name="Layer 1" xmlns="http://www.w3.org/2000/svg" viewBox="0 0 1080 720"><defs><style>.cls-1{fill:#0092ff;}.cls-2{fill:#919191;}</style></defs><path class="cls-1" d="M436,344l225.48,291H561.62L354.78,369.11l-92.86,92.15V424.85l-5.52,5.71-61.94,67.13,13.36-16.57c23.43-36.76,64.8-87.35,108.23-137.16,8.85-10.16,17.8-20.28,26.69-30.24,19.31-21.64,38.4-42.53,55.88-61.42,45.15-48.79,79.58-84.13,79.58-84.13l26.53.24,82-91.35-22.84,0L549,64.36H669L499,252.3l-72.21,79.82Z"/><polygon class="cls-2" points="562.39 634.92 542.63 655.64 682.88 655.64 662.2 634.92 562.39 634.92"/><path class="cls-2" d="M356.06,158H499.32l67.36-74.56H542.52l-26.07,26.07-282.28,1.2,30.24,32.18V376.3l29-32.34h22.65c8.85-10.16,17.8-20.28,26.69-30.24,19.31-21.64,38.4-42.53,55.88-61.42H356.06Z"/><polygon class="cls-2" points="356.06 394.21 264.41 483.36 264.41 550.88 234.22 581.07 387.04 581.07 356.06 550.09 356.06 394.21"/><polygon class="cls-2" points="435.56 332.12 444.74 343.96 465.5 343.96 548.44 252.3 507.77 252.3 435.56 332.12"/><path class="cls-2" d="M646.91,248.6a8,8,0,0,0-6.62,3.3q-2.31,3.15-2.3,10.91a9,9,0,0,0,.48,3.54,5.92,5.92,0,0,1,.48,1.13c-2.47,0-4.32-.51-5.53-1.54s-1.82-2.74-1.82-5.12a16.21,16.21,0,0,1,10.06-15.38Q646.91,243,655,243a37.47,37.47,0,0,1,4.4.35c3.29.32,5.63.48,7,.48a20.22,20.22,0,0,0,6.18-.83c-.14.42-.39,1.32-.76,2.71a8.08,8.08,0,0,1-2,3.58,7,7,0,0,1-3.81,2,43,43,0,0,1-9.62-1.3l-2.88,13.66h10l-1.09,5.08h-10l-5.56,25.81H637Z"/><path class="cls-2" d="M664,292.81q-2-2.06-2-6.17a23.5,23.5,0,0,1,.55-4.47l7.34-34.39L680,246.41l-7.89,37.07a8.16,8.16,0,0,0-.28,2.19,2.54,2.54,0,0,0,.65,2,3.24,3.24,0,0,0,2.17.58,5.22,5.22,0,0,0,3.7-1.68,9.6,9.6,0,0,0,2.48-4.36h2.88q-2.54,7.43-6.52,10.06a14.26,14.26,0,0,1-7.9,2.64A7.11,7.11,0,0,1,664,292.81Z"/><path class="cls-2" d="M710.52,292.27a10.34,10.34,0,0,1-2-6.53A7.09,7.09,0,0,1,710,281a4.41,4.41,0,0,1,3.43-1.82c2.38,0,3.58,1,3.58,2.88a2.94,2.94,0,0,1-1,2.17,3.26,3.26,0,0,1-2.33.92c-1,0-1.58-.29-1.85-.89a6.31,6.31,0,0,0,1,3.81,3.49,3.49,0,0,0,3,1.34,3.81,3.81,0,0,0,3.33-1.41c.66-.93,1-2.59,1-5a42.51,42.51,0,0,0-.41-5.22q-.69-6.6-1.1-13.46-4.87,7.49-11.53,9.48a30.07,30.07,0,0,1-2.68,11.05,18.59,18.59,0,0,1-5.8,7.28,13.08,13.08,0,0,1-7.79,2.54q-5.08,0-8-2.61t-3-8.24a33.52,33.52,0,0,1,1.86-10.4,24.19,24.19,0,0,1,6-9.82,14.55,14.55,0,0,1,10.71-4.15q8.71,0,8.79,10.78,5.07-.29,11.19-10.92L728.61,258q.33,8.79,1.16,19,.35,4.13.35,6a14.42,14.42,0,0,1-.21,2.54,41.79,41.79,0,0,0,4.88-3.37h2.88a42.24,42.24,0,0,1-9.54,8,10,10,0,0,1-4.36,3.57,14.89,14.89,0,0,1-5.74,1.09C714.37,294.87,711.87,294,710.52,292.27Zm-12.19-7.8a29.76,29.76,0,0,0,3-10.12c-1.1-.42-1.65-1.44-1.65-3.09s.64-3,1.93-3.57a7,7,0,0,0-.72-3.09,2.08,2.08,0,0,0-1.89-.89c-1.51,0-2.95,1.08-4.33,3.26a29.28,29.28,0,0,0-3.33,7.89,31.61,31.61,0,0,0-1.27,8.14c0,2.19.25,3.67.76,4.43a3.06,3.06,0,0,0,2.74,1.13Q696.14,288.56,698.33,284.47Z"/><path class="cls-2" d="M736.26,292.81q-2-2.06-2-6.17a23.5,23.5,0,0,1,.55-4.47l4.11-19.29h-2.26l.55-2.74h2.26l2.06-9.48,10.16-1.37-2.33,10.85h4.12l-.55,2.74h-4.12l-4.39,20.6a8.16,8.16,0,0,0-.28,2.19,2.54,2.54,0,0,0,.65,2,3.24,3.24,0,0,0,2.17.58,5.22,5.22,0,0,0,3.7-1.68,9.6,9.6,0,0,0,2.48-4.36H756q-2.54,7.43-6.52,10.06a14.26,14.26,0,0,1-7.9,2.64A7.11,7.11,0,0,1,736.26,292.81Z"/><path class="cls-2" d="M757.78,260.14h9.89l-.89,4.25a27.89,27.89,0,0,1,4.22-3.16,8,8,0,0,1,4.08-1.09,4.28,4.28,0,0,1,3.47,1.51,5.43,5.43,0,0,1,1.27,3.63,5.26,5.26,0,0,1-1.3,3.51,4.58,4.58,0,0,1-3.64,1.51,2.37,2.37,0,0,1-2-.72,5.49,5.49,0,0,1-.79-2.1,5.71,5.71,0,0,0-.41-1.3.76.76,0,0,0-.75-.41,4.71,4.71,0,0,0-2.44.58,16.83,16.83,0,0,0-2.58,2l-5.49,26.09h-9.88Z"/><path class="cls-2" d="M780.64,292.2c-1.73-1.79-2.61-4.58-2.61-8.38a31.33,31.33,0,0,1,2-10.67,24.6,24.6,0,0,1,6-9.48,13.34,13.34,0,0,1,9.58-3.88,7.39,7.39,0,0,1,4.19,1,3,3,0,0,1,1.37,2.54v.48l.75-3.63h9.89l-4.94,23.34a8.16,8.16,0,0,0-.28,2.19c0,2,.94,3,2.82,3a4.16,4.16,0,0,0,3.33-1.79,13.37,13.37,0,0,0,2.23-4.67h2.88q-2.53,7.43-6.28,10.06a13,13,0,0,1-7.52,2.64,6.54,6.54,0,0,1-4.63-1.61,7.2,7.2,0,0,1-2.1-4.7,18.87,18.87,0,0,1-4.42,4.56,9.67,9.67,0,0,1-5.8,1.75A8.76,8.76,0,0,1,780.64,292.2ZM795,286.6a8.51,8.51,0,0,0,2.3-4.43l3.29-15.51a2.76,2.76,0,0,0-.69-1.75,2.54,2.54,0,0,0-2.12-.86q-2.74,0-4.95,3.19a25.54,25.54,0,0,0-3.43,7.69,30.55,30.55,0,0,0-1.23,7.93c0,2.29.33,3.75,1,4.39a3.38,3.38,0,0,0,2.44,1A5,5,0,0,0,795,286.6Z"/><path class="cls-2" d="M833.68,292.64a8,8,0,0,1-2-5.52,17.63,17.63,0,0,1,.34-3.26q.35-1.83.72-3.54c.25-1.14.43-1.88.52-2.2.36-1.6.71-3.18,1-4.73a19.74,19.74,0,0,0,.48-3.78c0-2.33-.82-3.5-2.47-3.5a4,4,0,0,0-3.16,1.75,13.42,13.42,0,0,0-2.2,4.57l-4.67,22h-9.88l7.28-34.32h9.88l-.75,3.57a10.43,10.43,0,0,1,8-3.85,7.83,7.83,0,0,1,5.56,1.92c1.37,1.29,2.06,3.23,2.06,5.84a23.14,23.14,0,0,1-.48,4.43q-.48,2.43-1.37,5.94c-.37,1.41-.7,2.8-1,4.15a15.64,15.64,0,0,0-.45,3.19,3.28,3.28,0,0,0,.62,2.13,2.62,2.62,0,0,0,2.13.75,4.11,4.11,0,0,0,3.3-1.47,17.75,17.75,0,0,0,2.47-4.57h2.88q-2.54,7.56-5.87,10.13a11.13,11.13,0,0,1-6.9,2.57Q835.64,294.87,833.68,292.64Z"/><path class="cls-2" d="M851.42,292.2q-2.61-2.68-2.61-8.38a31.33,31.33,0,0,1,2-10.67,24.6,24.6,0,0,1,6-9.48,13.34,13.34,0,0,1,9.58-3.88,7.33,7.33,0,0,1,4.18,1,3,3,0,0,1,1.38,2.54v.28l3.36-15.79,10.16-1.37-7.89,37.07a7.4,7.4,0,0,0-.28,2c0,1.83.94,2.74,2.82,2.74a5.42,5.42,0,0,0,2.19-.41,7.26,7.26,0,0,1-2.43,5.25,7.66,7.66,0,0,1-5.12,1.82,7.51,7.51,0,0,1-4.63-1.4,7,7,0,0,1-2.51-4.29q-4.11,5.7-9.75,5.69A8.75,8.75,0,0,1,851.42,292.2Zm14-5.29a7.7,7.7,0,0,0,2.3-3.64l.28-1.1,3.36-15.72a2.75,2.75,0,0,0-2.81-2.4c-1.84,0-3.48,1.06-5,3.19a25.29,25.29,0,0,0-3.43,7.69,30.61,30.61,0,0,0-1.24,7.93c0,2.29.34,3.75,1,4.39a3.38,3.38,0,0,0,2.44,1A4.76,4.76,0,0,0,865.46,286.91Z"/><path class="cls-2" d="M786,332.47a6.84,6.84,0,0,1-1.82,4.53,9.1,9.1,0,0,1-7.31,3.37,23.25,23.25,0,0,1-3.46,10.26,19.71,19.71,0,0,1-7.45,6.86,21.61,21.61,0,0,1-10.3,2.44q-6.53,0-10.26-3.29a11.3,11.3,0,0,1-3.75-8.93,17.65,17.65,0,0,1,1.69-7.45,19.54,19.54,0,0,1,4.6-6.35,16.09,16.09,0,0,1,6.42-3.7v-.28a10.85,10.85,0,0,1-3-3.78,12.12,12.12,0,0,1-.89-4.94,13,13,0,0,1,2-7,15.37,15.37,0,0,1,13-7.17,11.16,11.16,0,0,1,7.69,2.68,8.68,8.68,0,0,1,3,6.79,7.09,7.09,0,0,1-1.44,4.6,4.65,4.65,0,0,1-3.78,1.79,5,5,0,0,1-4.19-2.13,5.51,5.51,0,0,0,2-2.33,7.55,7.55,0,0,0,.79-3.37,4.43,4.43,0,0,0-1-3,3.29,3.29,0,0,0-2.6-1.1,5.29,5.29,0,0,0-3.44,1.38A9.7,9.7,0,0,0,760,316a12.11,12.11,0,0,0-1,4.84,8.8,8.8,0,0,0,6.93,9v.28a13.37,13.37,0,0,0-6.08,3,17.45,17.45,0,0,0-4.53,5.77,15.45,15.45,0,0,0-1.68,6.9,8,8,0,0,0,1.78,5.56,6.3,6.3,0,0,0,5,2,11.61,11.61,0,0,0,5.83-1.65,15.12,15.12,0,0,0,4.95-4.6,16.82,16.82,0,0,0,2.74-6.66,12.85,12.85,0,0,0-3.16.42,10.06,10.06,0,0,0-5.42,3.64l-.21.06a7.81,7.81,0,0,1-1.23-2.47,5.68,5.68,0,0,1-.28-1.78,6.14,6.14,0,0,1,1.65-4.19,8.87,8.87,0,0,1,4.12-2.61,28.83,28.83,0,0,1,5.29-.82,27.27,27.27,0,0,0,3.91-.48,11.18,11.18,0,0,0,3.19-1.62,10.6,10.6,0,0,0,2.44-2.23h.14a6.31,6.31,0,0,1,1.51,2.54A6.39,6.39,0,0,1,786,332.47Z"/><path class="cls-1" d="M682.37,419.5a15.66,15.66,0,0,1,.45-3.47c.29-1.3.72-3,1.27-5s1.12-4,1.44-5.49a19.76,19.76,0,0,0,.48-4.05q0-4.67-4.12-4.67a9.53,9.53,0,0,0-2.27.28l-5.49,25.88h-9.88l10-46.68a15.2,15.2,0,0,0-7.1,5.76,16.56,16.56,0,0,0-2.51,9.27,9,9,0,0,0,.48,3.54,5.92,5.92,0,0,1,.48,1.13c-2.47,0-4.31-.52-5.52-1.54s-1.82-2.74-1.82-5.12a13,13,0,0,1,3.6-8.55,28.62,28.62,0,0,1,20.49-9.3c.64,0,1.56.05,2.75.14l-4.46,21,7.07-9.48q8.45-11.39,8.51-11.33h7.21l-19.09,22,2.41-.07c3.11,0,5.31.66,6.59,2a7.37,7.37,0,0,1,1.92,5.39,20,20,0,0,1-.48,4.22q-.48,2.24-1.37,5.53c-.37,1.42-.72,2.81-1,4.19a15.58,15.58,0,0,0-.48,3.43,5.47,5.47,0,0,0,.72,2.81,3.82,3.82,0,0,0,1.95,1.72,26.49,26.49,0,0,1-6.79,1.17C684.16,424.1,682.37,422.56,682.37,419.5Z"/><path class="cls-1" d="M717.69,421.11a8.11,8.11,0,0,1-2-5.53,17.71,17.71,0,0,1,.34-3.26c.23-1.21.47-2.39.72-3.53s.42-1.88.51-2.2c.37-1.6.71-3.18,1-4.74a19.56,19.56,0,0,0,.48-3.77c0-2.34-.82-3.5-2.47-3.5a3.94,3.94,0,0,0-3.15,1.75,13.37,13.37,0,0,0-2.2,4.56l-4.67,22h-9.89l7.28-34.33h9.89l-.76,3.57a10.48,10.48,0,0,1,8-3.84,7.86,7.86,0,0,1,5.57,1.92q2.06,1.92,2.06,5.84a23,23,0,0,1-.49,4.42c-.32,1.63-.77,3.61-1.37,5.94-.37,1.42-.7,2.81-1,4.16a15.64,15.64,0,0,0-.45,3.19,3.3,3.3,0,0,0,.62,2.13,2.62,2.62,0,0,0,2.13.75,4.08,4.08,0,0,0,3.29-1.47,17.45,17.45,0,0,0,2.47-4.57h2.89q-2.55,7.56-5.87,10.13a11.19,11.19,0,0,1-6.9,2.57C721,423.34,719,422.6,717.69,421.11Z"/><path class="cls-1" d="M735.2,421.28q-2-2.05-2-6.18a24.36,24.36,0,0,1,.55-4.46l4.67-22h9.89L743.33,412a10.27,10.27,0,0,0-.2,1.92c0,1.88.68,2.81,2.06,2.81a4.16,4.16,0,0,0,3.29-1.61,11.91,11.91,0,0,0,2.2-4.43l4.67-22h9.88L760.29,412a8.59,8.59,0,0,0-.27,2.19,2.5,2.5,0,0,0,.65,2,3.19,3.19,0,0,0,2.16.58,4.26,4.26,0,0,0,3.33-1.65,11.9,11.9,0,0,0,2.23-4.39h2.88q-2.53,7.41-6.28,10.06a13,13,0,0,1-7.51,2.64,6.6,6.6,0,0,1-4.71-1.65,7.54,7.54,0,0,1-2.09-4.87,13.9,13.9,0,0,1-4.91,5.15,11,11,0,0,1-5.25,1.37A7.1,7.1,0,0,1,735.2,421.28Z"/><path class="cls-1" d="M769.87,421.28q-2-2.05-2-6.18a23.51,23.51,0,0,1,.55-4.46l4.12-19.29h-2.27l.55-2.75h2.27l2.06-9.47,10.16-1.37-2.34,10.84h4.12l-.55,2.75h-4.12L778,412a8.59,8.59,0,0,0-.27,2.19,2.5,2.5,0,0,0,.65,2,3.19,3.19,0,0,0,2.16.58,5.24,5.24,0,0,0,3.71-1.68,9.59,9.59,0,0,0,2.47-4.36h2.88q-2.54,7.41-6.52,10.06a14.2,14.2,0,0,1-7.89,2.64A7.1,7.1,0,0,1,769.87,421.28Z"/><path class="cls-1" d="M789,422.07a8.35,8.35,0,0,1-3.37-3.29,8.78,8.78,0,0,1-1.1-4.23,7.2,7.2,0,0,1,1.07-3.94,6.49,6.49,0,0,1,2.57-2.44,87.06,87.06,0,0,0,4.67-9.71q2-4.92,3.78-10.61l10.16-1.37q.33,8.77,1.16,19,.35,4.13.35,6a10,10,0,0,1-.28,2.61,28.38,28.38,0,0,0,5-3.43h2.88a40,40,0,0,1-10.5,8.58,12,12,0,0,1-4.91,3.13,18.22,18.22,0,0,1-5.87,1A11.18,11.18,0,0,1,789,422.07Zm7.62-5.66c1.14-1,1.71-2.63,1.71-4.88a56.94,56.94,0,0,0-.41-5.76c-.46-5.22-.75-8.72-.89-10.51a79.53,79.53,0,0,1-5.56,13,2.6,2.6,0,0,1,1.58,2.4,3.58,3.58,0,0,1-.86,2.34,2.71,2.71,0,0,1-2.16,1,1.83,1.83,0,0,1-1.86-.9,5.5,5.5,0,0,0,1,3.64,4,4,0,0,0,3.19,1.17A6.22,6.22,0,0,0,796.61,416.41Z"/><path class="cls-1" d="M814.87,420.7q-2.82-2.64-2.82-8.27A33.9,33.9,0,0,1,813.91,402a24.06,24.06,0,0,1,6-9.85A14.47,14.47,0,0,1,830.59,388q7.54,0,7.55,6.59a12.27,12.27,0,0,1-2.2,7.07,16.16,16.16,0,0,1-5.83,5.18,18.72,18.72,0,0,1-7.76,2.23c-.09,1.38-.14,2.29-.14,2.75q0,3.36,1.17,4.56a5.06,5.06,0,0,0,3.78,1.21,11.46,11.46,0,0,0,6.35-1.72,30.66,30.66,0,0,0,5.8-5.22h2.33q-7.62,12.71-18.88,12.7Q817.68,423.34,814.87,420.7ZM827.74,404a12.59,12.59,0,0,0,3.71-4.19,10.93,10.93,0,0,0,1.4-5.35q0-2.82-1.71-2.82c-1.65,0-3.26,1.45-4.84,4.33a33,33,0,0,0-3.4,9.82A9,9,0,0,0,827.74,404Z"/><path class="cls-1" d="M857.64,421.15a9,9,0,0,1-1.65-5.57,17.71,17.71,0,0,1,.34-3.26c.23-1.21.47-2.39.72-3.53s.42-1.88.52-2.2c.36-1.6.71-3.18,1-4.74a19.56,19.56,0,0,0,.48-3.77c0-2.34-.83-3.5-2.47-3.5a4,4,0,0,0-3.16,1.75,13.37,13.37,0,0,0-2.2,4.56l-4.67,22H836.7L844,388.6h9.89l-.76,3.57a10.49,10.49,0,0,1,8-3.84,7.85,7.85,0,0,1,5.56,1.92q2.06,1.92,2.06,5.84a23,23,0,0,1-.48,4.42q-.48,2.44-1.38,5.94c-.36,1.42-.7,2.81-1,4.16a15.64,15.64,0,0,0-.45,3.19,3.3,3.3,0,0,0,.62,2.13,2.62,2.62,0,0,0,2.13.75,4.31,4.31,0,0,0,2.26-.41,7.83,7.83,0,0,1-2.5,5.29,7.53,7.53,0,0,1-5.05,1.78C860.5,423.34,858.73,422.61,857.64,421.15Z"/></svg>