<svg width="22" height="22" viewBox="0 0 22 22" fill="none" xmlns="http://www.w3.org/2000/svg">
<path fill-rule="evenodd" clip-rule="evenodd" d="M18.2188 3.4375C18.4923 3.4375 18.7546 3.54615 18.948 3.73955C19.1414 3.93294 19.25 4.19525 19.25 4.46875C19.25 4.74225 19.1414 5.00456 18.948 5.19795C18.7546 5.39135 18.4923 5.5 18.2188 5.5H3.78125C3.50775 5.5 3.24544 5.39135 3.05205 5.19795C2.85865 5.00456 2.75 4.74225 2.75 4.46875C2.75 4.19525 2.85865 3.93294 3.05205 3.73955C3.24544 3.54615 3.50775 3.4375 3.78125 3.4375H18.2188ZM16.5 11C16.5 10.7265 16.3914 10.4642 16.198 10.2708C16.0046 10.0774 15.7423 9.96875 15.4688 9.96875H1.03125C0.757746 9.96875 0.495443 10.0774 0.302046 10.2708C0.108648 10.4642 0 10.7265 0 11C0 11.2735 0.108648 11.5358 0.302046 11.7292C0.495443 11.9226 0.757746 12.0312 1.03125 12.0312H15.4688C15.7423 12.0312 16.0046 11.9226 16.198 11.7292C16.3914 11.5358 16.5 11.2735 16.5 11ZM22 17.5312C22 17.2577 21.8914 16.9954 21.698 16.802C21.5046 16.6087 21.2423 16.5 20.9688 16.5H6.53125C6.25775 16.5 5.99544 16.6087 5.80205 16.802C5.60865 16.9954 5.5 17.2577 5.5 17.5312C5.5 17.8048 5.60865 18.0671 5.80205 18.2605C5.99544 18.4538 6.25775 18.5625 6.53125 18.5625H20.9688C21.2423 18.5625 21.5046 18.4538 21.698 18.2605C21.8914 18.0671 22 17.8048 22 17.5312Z" fill="black"/>
</svg>
