<svg width="290" height="18" viewBox="0 0 290 18" fill="none" xmlns="http://www.w3.org/2000/svg">
<path d="M14.8163 16.968V18H0.320312V16.968H2.64831V1.224H13.8323L13.8083 3.864H5.48031V8.472H12.9203V11.088H5.48031V16.968H14.8163ZM29.9487 16.968V18H14.8047V16.968H17.1327V1.224H19.9647V15.312H27.6207V16.968H29.9487ZM48.5584 16.968V18H28.3984V16.968H33.8944C32.5824 16.216 31.5424 15.184 30.7744 13.872C30.0224 12.56 29.6464 11.096 29.6464 9.48C29.6464 7.016 30.4944 4.96 32.1904 3.312C33.8864 1.648 35.9824 0.816 38.4784 0.816C40.9744 0.816 43.0704 1.648 44.7664 3.312C46.4624 4.96 47.3104 7.016 47.3104 9.48C47.3104 11.08 46.9264 12.544 46.1584 13.872C45.4064 15.2 44.3744 16.232 43.0624 16.968H48.5584ZM42.6784 5.184C41.5424 4 40.1424 3.408 38.4784 3.408C36.8144 3.408 35.4064 4 34.2544 5.184C33.1184 6.368 32.5504 7.808 32.5504 9.504C32.5504 11.184 33.1184 12.616 34.2544 13.8C35.4064 14.984 36.8144 15.576 38.4784 15.576C40.1424 15.576 41.5424 14.984 42.6784 13.8C43.8304 12.616 44.4064 11.184 44.4064 9.504C44.4064 7.808 43.8304 6.368 42.6784 5.184ZM63.6747 16.968V18H48.5547V16.968H51.6267C50.8587 16.568 50.1547 16.072 49.5147 15.48L51.2907 13.344C52.9867 14.816 54.7467 15.552 56.5707 15.552C57.4827 15.552 58.2027 15.36 58.7307 14.976C59.2747 14.576 59.5467 14.056 59.5467 13.416C59.5467 12.76 59.2907 12.256 58.7787 11.904C58.2827 11.536 57.4187 11.208 56.1867 10.92C54.9547 10.616 54.0187 10.344 53.3787 10.104C52.7387 9.848 52.1707 9.52 51.6747 9.12C50.6827 8.368 50.1867 7.216 50.1867 5.664C50.1867 4.112 50.7467 2.92 51.8667 2.088C53.0027 1.24 54.4027 0.816 56.0667 0.816C57.1387 0.816 58.2027 0.992 59.2587 1.344C60.3147 1.696 61.2267 2.192 61.9947 2.832L60.4827 4.968C59.9867 4.52 59.3147 4.152 58.4667 3.864C57.6187 3.576 56.7787 3.432 55.9467 3.432C55.1307 3.432 54.4587 3.6 53.9307 3.936C53.4027 4.272 53.1387 4.784 53.1387 5.472C53.1387 6.144 53.4027 6.664 53.9307 7.032C54.4587 7.384 55.5787 7.768 57.2907 8.184C59.0187 8.6 60.3147 9.184 61.1787 9.936C62.0587 10.688 62.4987 11.744 62.4987 13.104C62.4987 14.752 61.8907 16.04 60.6747 16.968H63.6747ZM78.1679 16.968V18H63.6719V16.968H69.5039V3.816H64.4159V1.224H77.4239V3.816H72.3359V16.968H78.1679ZM96.2283 16.968V18H91.0443L87.0363 12.36H83.3163V18H78.1562V16.968H80.4843V1.224H86.7243C89.2843 1.224 91.1163 1.656 92.2203 2.52C93.3243 3.384 93.8763 4.768 93.8763 6.672C93.8763 9.44 92.6683 11.184 90.2523 11.904L93.9003 16.968H96.2283ZM86.8443 9.792C88.4443 9.792 89.5323 9.544 90.1083 9.048C90.6843 8.552 90.9723 7.76 90.9723 6.672C90.9723 5.568 90.6763 4.816 90.0843 4.416C89.4923 4 88.4363 3.792 86.9163 3.792H83.3163V9.792H86.8443ZM115.753 16.968V18H110.401L108.721 14.184H100.321L98.6412 18H93.2892V16.968H96.0732L103.009 1.224H106.033L112.969 16.968H115.753ZM107.569 11.568L104.521 4.656L101.473 11.568H107.569ZM115.758 16.968V1.224H118.59L128.334 13.752V1.224H131.166V16.968H133.494V18H128.094L118.59 5.76V18H113.43V16.968H115.758ZM152.26 16.968V18H133.492V16.968H135.82V1.224H141.58C144.588 1.224 146.9 1.96 148.516 3.432C150.132 4.888 150.94 6.944 150.94 9.6C150.94 13.168 149.532 15.624 146.716 16.968H152.26ZM148.084 9.6C148.084 5.76 145.884 3.84 141.484 3.84H138.652V15.336H141.796C143.828 15.336 145.38 14.856 146.452 13.896C147.54 12.92 148.084 11.488 148.084 9.6ZM170.17 16.968V18H152.266V16.968H155.962C154.282 16.072 153.442 14.688 153.442 12.816C153.442 11.104 154.682 9.576 157.162 8.232C156.586 7.56 156.178 6.992 155.938 6.528C155.714 6.064 155.602 5.488 155.602 4.8C155.602 3.52 156.074 2.536 157.018 1.848C157.962 1.16 159.074 0.816 160.354 0.816C161.634 0.816 162.722 1.144 163.618 1.8C164.514 2.456 164.962 3.376 164.962 4.56C164.962 5.424 164.626 6.184 163.954 6.84C163.298 7.48 162.29 8.136 160.93 8.808C162.418 10.616 163.458 11.832 164.05 12.456C164.674 11.576 165.122 10.624 165.394 9.6L167.362 10.992C166.882 12.24 166.346 13.304 165.754 14.184C166.506 14.936 167.458 15.864 168.61 16.968H170.17ZM156.106 12.936C156.106 13.656 156.41 14.248 157.018 14.712C157.626 15.16 158.41 15.384 159.37 15.384C160.346 15.384 161.362 14.984 162.418 14.184C160.482 12.12 159.218 10.704 158.626 9.936C156.946 10.88 156.106 11.88 156.106 12.936ZM160.33 2.952C159.802 2.952 159.322 3.12 158.89 3.456C158.474 3.792 158.266 4.24 158.266 4.8C158.266 5.344 158.682 6.112 159.514 7.104C160.602 6.624 161.354 6.224 161.77 5.904C162.202 5.584 162.418 5.232 162.418 4.848C162.418 4.208 162.202 3.736 161.77 3.432C161.354 3.112 160.874 2.952 160.33 2.952ZM164.146 15.984C163.602 16.416 163.09 16.744 162.61 16.968H165.13L164.146 15.984ZM171.258 16.968V1.224H174.09V9.408L181.77 1.224H185.37L178.626 8.568L184.722 16.992V16.968H187.05V18H182.106L176.538 10.656L174.09 13.296V18H168.93V16.968H171.258ZM188.156 16.968V1.224H190.988L200.732 13.752V1.224H203.564V16.968H205.892V18H200.492L190.988 5.76V18H185.828V16.968H188.156ZM224.323 16.968V18H205.891V16.968H210.859C208.955 15.64 208.003 13.536 208.003 10.656V1.224H210.835V10.536C210.835 12.072 211.219 13.288 211.987 14.184C212.755 15.08 213.795 15.528 215.107 15.528C216.419 15.528 217.459 15.08 218.227 14.184C218.995 13.288 219.379 12.072 219.379 10.536V1.224H222.211V10.656C222.211 13.552 221.251 15.656 219.331 16.968H224.323ZM238.809 16.968V18H224.312V16.968H230.145V3.816H225.057V1.224H238.065V3.816H232.977V16.968H238.809ZM253.917 16.968V18H238.797V16.968H241.869C241.101 16.568 240.397 16.072 239.757 15.48L241.533 13.344C243.229 14.816 244.989 15.552 246.813 15.552C247.725 15.552 248.445 15.36 248.973 14.976C249.517 14.576 249.789 14.056 249.789 13.416C249.789 12.76 249.533 12.256 249.021 11.904C248.525 11.536 247.661 11.208 246.429 10.92C245.197 10.616 244.261 10.344 243.621 10.104C242.981 9.848 242.413 9.52 241.917 9.12C240.925 8.368 240.429 7.216 240.429 5.664C240.429 4.112 240.989 2.92 242.109 2.088C243.245 1.24 244.645 0.816 246.309 0.816C247.381 0.816 248.445 0.992 249.501 1.344C250.557 1.696 251.469 2.192 252.237 2.832L250.725 4.968C250.229 4.52 249.557 4.152 248.709 3.864C247.861 3.576 247.021 3.432 246.189 3.432C245.373 3.432 244.701 3.6 244.173 3.936C243.645 4.272 243.381 4.784 243.381 5.472C243.381 6.144 243.645 6.664 244.173 7.032C244.701 7.384 245.821 7.768 247.533 8.184C249.261 8.6 250.557 9.184 251.421 9.936C252.301 10.688 252.741 11.744 252.741 13.104C252.741 14.752 252.133 16.04 250.917 16.968H253.917ZM256.242 16.968V1.224H268.026V3.888H259.074V8.328H267.114V10.848H259.074V15.336H268.314V16.968H270.642V18H253.914V16.968H256.242ZM271.945 16.968V1.224H274.777L284.521 13.752V1.224H287.353V16.968H289.681V18H284.281L274.777 5.76V18H269.617V16.968H271.945Z" fill="#1E2245"/>
</svg>
