<svg width="386" height="23" viewBox="0 0 386 23" fill="none" xmlns="http://www.w3.org/2000/svg">
<path d="M19.4218 21.624V23H0.09375V21.624H3.19775V0.631998H18.1098L18.0778 4.152H6.97375V10.296H16.8938V13.784H6.97375V21.624H19.4218ZM39.5983 21.624V23H19.4062V21.624H22.5103V0.631998H26.2863V19.416H36.4943V21.624H39.5983ZM64.4113 21.624V23H37.5312V21.624H44.8593C43.1099 20.6213 41.7233 19.2453 40.6993 17.496C39.6966 15.7467 39.1953 13.7947 39.1953 11.64C39.1953 8.35467 40.3259 5.61333 42.5873 3.416C44.8486 1.19733 47.6433 0.0879993 50.9713 0.0879993C54.2993 0.0879993 57.0939 1.19733 59.3553 3.416C61.6166 5.61333 62.7473 8.35467 62.7473 11.64C62.7473 13.7733 62.2353 15.7253 61.2113 17.496C60.2086 19.2667 58.8326 20.6427 57.0833 21.624H64.4113ZM56.5713 5.912C55.0566 4.33333 53.1899 3.544 50.9713 3.544C48.7526 3.544 46.8753 4.33333 45.3393 5.912C43.8246 7.49067 43.0673 9.41067 43.0673 11.672C43.0673 13.912 43.8246 15.8213 45.3393 17.4C46.8753 18.9787 48.7526 19.768 50.9713 19.768C53.1899 19.768 55.0566 18.9787 56.5713 17.4C58.1073 15.8213 58.8753 13.912 58.8753 11.672C58.8753 9.41067 58.1073 7.49067 56.5713 5.912ZM84.5663 21.624V23H64.4062V21.624H68.5023C67.4783 21.0907 66.5396 20.4293 65.6863 19.64L68.0543 16.792C70.3156 18.7547 72.6623 19.736 75.0943 19.736C76.3103 19.736 77.2703 19.48 77.9743 18.968C78.6996 18.4347 79.0623 17.7413 79.0623 16.888C79.0623 16.0133 78.7209 15.3413 78.0383 14.872C77.3769 14.3813 76.2249 13.944 74.5823 13.56C72.9396 13.1547 71.6916 12.792 70.8383 12.472C69.9849 12.1307 69.2276 11.6933 68.5663 11.16C67.2436 10.1573 66.5823 8.62133 66.5823 6.552C66.5823 4.48267 67.3289 2.89333 68.8223 1.784C70.3369 0.653332 72.2036 0.0879993 74.4223 0.0879993C75.8516 0.0879993 77.2703 0.322666 78.6783 0.792C80.0863 1.26133 81.3023 1.92267 82.3263 2.776L80.3103 5.624C79.6489 5.02667 78.7529 4.536 77.6223 4.152C76.4916 3.768 75.3716 3.576 74.2623 3.576C73.1743 3.576 72.2783 3.8 71.5743 4.248C70.8703 4.696 70.5183 5.37867 70.5183 6.296C70.5183 7.192 70.8703 7.88533 71.5743 8.376C72.2783 8.84533 73.7716 9.35733 76.0543 9.912C78.3583 10.4667 80.0863 11.2453 81.2383 12.248C82.4116 13.2507 82.9983 14.6587 82.9983 16.472C82.9983 18.6693 82.1876 20.3867 80.5662 21.624H84.5663ZM103.891 21.624V23H84.5625V21.624H92.3385V4.088H85.5545V0.631998H102.899V4.088H96.1145V21.624H103.891ZM127.971 21.624V23H121.059L115.715 15.48H110.755V23H103.875V21.624H106.979V0.631998H115.299C118.712 0.631998 121.155 1.208 122.627 2.36C124.099 3.512 124.835 5.35733 124.835 7.896C124.835 11.5867 123.224 13.912 120.003 14.872L124.867 21.624H127.971ZM115.459 12.056C117.592 12.056 119.043 11.7253 119.811 11.064C120.579 10.4027 120.963 9.34667 120.963 7.896C120.963 6.424 120.568 5.42133 119.779 4.888C118.99 4.33333 117.582 4.056 115.555 4.056H110.755V12.056H115.459ZM154.004 21.624V23H146.868L144.628 17.912H133.428L131.188 23H124.052V21.624H127.764L137.012 0.631998H141.044L150.292 21.624H154.004ZM143.092 14.424L139.028 5.208L134.964 14.424H143.092ZM154.01 21.624V0.631998H157.786L170.778 17.336V0.631998H174.554V21.624H177.658V23H170.458L157.786 6.68V23H150.906V21.624H154.01ZM202.68 21.624V23H177.656V21.624H180.76V0.631998H188.44C192.451 0.631998 195.534 1.61333 197.688 3.576C199.843 5.51733 200.92 8.25867 200.92 11.8C200.92 16.5573 199.043 19.832 195.288 21.624H202.68ZM197.112 11.8C197.112 6.68 194.179 4.12 188.312 4.12H184.536V19.448H188.728C191.438 19.448 193.507 18.808 194.936 17.528C196.387 16.2267 197.112 14.3173 197.112 11.8ZM226.56 21.624V23H202.688V21.624H207.616C205.376 20.4293 204.256 18.584 204.256 16.088C204.256 13.8053 205.909 11.768 209.216 9.976C208.448 9.08 207.904 8.32267 207.584 7.704C207.285 7.08533 207.136 6.31733 207.136 5.4C207.136 3.69333 207.765 2.38133 209.024 1.464C210.282 0.546666 211.765 0.0879993 213.472 0.0879993C215.178 0.0879993 216.629 0.525333 217.824 1.4C219.018 2.27467 219.616 3.50133 219.616 5.08C219.616 6.232 219.168 7.24533 218.272 8.12C217.397 8.97333 216.053 9.848 214.24 10.744C216.224 13.1547 217.61 14.776 218.4 15.608C219.232 14.4347 219.829 13.1653 220.192 11.8L222.816 13.656C222.176 15.32 221.461 16.7387 220.672 17.912C221.674 18.9147 222.944 20.152 224.48 21.624H226.56ZM207.808 16.248C207.808 17.208 208.213 17.9973 209.024 18.616C209.834 19.2133 210.88 19.512 212.16 19.512C213.461 19.512 214.816 18.9787 216.224 17.912C213.642 15.16 211.957 13.272 211.168 12.248C208.928 13.5067 207.808 14.84 207.808 16.248ZM213.44 2.936C212.736 2.936 212.096 3.16 211.52 3.608C210.965 4.056 210.688 4.65333 210.688 5.4C210.688 6.12533 211.242 7.14933 212.352 8.472C213.802 7.832 214.805 7.29867 215.36 6.872C215.936 6.44533 216.224 5.976 216.224 5.464C216.224 4.61067 215.936 3.98133 215.36 3.576C214.805 3.14933 214.165 2.936 213.44 2.936ZM218.528 20.312C217.802 20.888 217.12 21.3253 216.48 21.624H219.84L218.528 20.312ZM228.01 21.624V0.631998H231.786V11.544L242.026 0.631998H246.826L237.834 10.424L245.962 21.656V21.624H249.066V23H242.474L235.05 13.208L231.786 16.728V23H224.906V21.624H228.01ZM250.542 21.624V0.631998H254.318L267.31 17.336V0.631998H271.086V21.624H274.19V23H266.99L254.318 6.68V23H247.438V21.624H250.542ZM298.764 21.624V23H274.188V21.624H280.812C278.273 19.8533 277.004 17.048 277.004 13.208V0.631998H280.78V13.048C280.78 15.096 281.292 16.7173 282.316 17.912C283.34 19.1067 284.726 19.704 286.476 19.704C288.225 19.704 289.612 19.1067 290.635 17.912C291.66 16.7173 292.172 15.096 292.172 13.048V0.631998H295.948V13.208C295.948 17.0693 294.668 19.8747 292.108 21.624H298.764ZM318.078 21.624V23H298.75V21.624H306.526V4.088H299.742V0.631998H317.086V4.088H310.302V21.624H318.078ZM338.223 21.624V23H318.062V21.624H322.159C321.135 21.0907 320.196 20.4293 319.343 19.64L321.711 16.792C323.972 18.7547 326.319 19.736 328.751 19.736C329.967 19.736 330.927 19.48 331.631 18.968C332.356 18.4347 332.719 17.7413 332.719 16.888C332.719 16.0133 332.377 15.3413 331.695 14.872C331.033 14.3813 329.881 13.944 328.239 13.56C326.596 13.1547 325.348 12.792 324.495 12.472C323.641 12.1307 322.884 11.6933 322.223 11.16C320.9 10.1573 320.239 8.62133 320.239 6.552C320.239 4.48267 320.985 2.89333 322.479 1.784C323.993 0.653332 325.86 0.0879993 328.079 0.0879993C329.508 0.0879993 330.927 0.322666 332.335 0.792C333.743 1.26133 334.959 1.92267 335.983 2.776L333.967 5.624C333.305 5.02667 332.409 4.536 331.279 4.152C330.148 3.768 329.028 3.576 327.919 3.576C326.831 3.576 325.935 3.8 325.231 4.248C324.527 4.696 324.175 5.37867 324.175 6.296C324.175 7.192 324.527 7.88533 325.231 8.376C325.935 8.84533 327.428 9.35733 329.711 9.912C332.015 10.4667 333.743 11.2453 334.895 12.248C336.068 13.2507 336.655 14.6587 336.655 16.472C336.655 18.6693 335.844 20.3867 334.222 21.624H338.223ZM341.323 21.624V0.631998H357.035V4.184H345.099V10.104H355.819V13.464H345.099V19.448H357.419V21.624H360.523V23H338.219V21.624H341.323ZM362.26 21.624V0.631998H366.036L379.028 17.336V0.631998H382.804V21.624H385.908V23H378.708L366.036 6.68V23H359.156V21.624H362.26Z" fill="#1E2245"/>
</svg>
