<svg width="145" height="9" viewBox="0 0 145 9" fill="none" xmlns="http://www.w3.org/2000/svg">
<path d="M7.40816 8.484V9H0.160156V8.484H1.32416V0.611999H6.91616L6.90416 1.932H2.74016V4.236H6.46016V5.544H2.74016V8.484H7.40816ZM14.9743 8.484V9H7.40234V8.484H8.56634V0.611999H9.98234V7.656H13.8103V8.484H14.9743ZM24.2792 8.484V9H14.1992V8.484H16.9472C16.2912 8.108 15.7712 7.592 15.3872 6.936C15.0112 6.28 14.8232 5.548 14.8232 4.74C14.8232 3.508 15.2472 2.48 16.0952 1.656C16.9432 0.824 17.9912 0.408 19.2392 0.408C20.4872 0.408 21.5352 0.824 22.3832 1.656C23.2312 2.48 23.6552 3.508 23.6552 4.74C23.6552 5.54 23.4632 6.272 23.0792 6.936C22.7032 7.6 22.1872 8.116 21.5312 8.484H24.2792ZM21.3392 2.592C20.7712 2 20.0712 1.704 19.2392 1.704C18.4072 1.704 17.7032 2 17.1272 2.592C16.5592 3.184 16.2752 3.904 16.2752 4.752C16.2752 5.592 16.5592 6.308 17.1272 6.9C17.7032 7.492 18.4072 7.788 19.2392 7.788C20.0712 7.788 20.7712 7.492 21.3392 6.9C21.9152 6.308 22.2032 5.592 22.2032 4.752C22.2032 3.904 21.9152 3.184 21.3392 2.592ZM31.8373 8.484V9H24.2773V8.484H25.8133C25.4293 8.284 25.0773 8.036 24.7573 7.74L25.6453 6.672C26.4933 7.408 27.3733 7.776 28.2853 7.776C28.7413 7.776 29.1013 7.68 29.3653 7.488C29.6373 7.288 29.7733 7.028 29.7733 6.708C29.7733 6.38 29.6453 6.128 29.3893 5.952C29.1413 5.768 28.7093 5.604 28.0933 5.46C27.4773 5.308 27.0093 5.172 26.6893 5.052C26.3693 4.924 26.0853 4.76 25.8373 4.56C25.3413 4.184 25.0933 3.608 25.0933 2.832C25.0933 2.056 25.3733 1.46 25.9333 1.044C26.5013 0.62 27.2013 0.408 28.0333 0.408C28.5693 0.408 29.1013 0.496 29.6293 0.672C30.1573 0.848 30.6133 1.096 30.9973 1.416L30.2413 2.484C29.9933 2.26 29.6573 2.076 29.2333 1.932C28.8093 1.788 28.3893 1.716 27.9733 1.716C27.5653 1.716 27.2293 1.8 26.9653 1.968C26.7013 2.136 26.5693 2.392 26.5693 2.736C26.5693 3.072 26.7013 3.332 26.9653 3.516C27.2293 3.692 27.7893 3.884 28.6453 4.092C29.5093 4.3 30.1573 4.592 30.5893 4.968C31.0293 5.344 31.2493 5.872 31.2493 6.552C31.2493 7.376 30.9453 8.02 30.3373 8.484H31.8373ZM39.0839 8.484V9H31.8359V8.484H34.7519V1.908H32.2079V0.611999H38.7119V1.908H36.1679V8.484H39.0839ZM48.1141 8.484V9H45.5221L43.5181 6.18H41.6581V9H39.0781V8.484H40.2421V0.611999H43.3621C44.6421 0.611999 45.5581 0.827999 46.1101 1.26C46.6621 1.692 46.9381 2.384 46.9381 3.336C46.9381 4.72 46.3341 5.592 45.1261 5.952L46.9501 8.484H48.1141ZM43.4221 4.896C44.2221 4.896 44.7661 4.772 45.0541 4.524C45.3421 4.276 45.4861 3.88 45.4861 3.336C45.4861 2.784 45.3381 2.408 45.0421 2.208C44.7461 2 44.2181 1.896 43.4581 1.896H41.6581V4.896H43.4221ZM57.8766 8.484V9H55.2006L54.3606 7.092H50.1606L49.3206 9H46.6446V8.484H48.0366L51.5046 0.611999H53.0166L56.4846 8.484H57.8766ZM53.7846 5.784L52.2606 2.328L50.7366 5.784H53.7846ZM57.8788 8.484V0.611999H59.2948L64.1668 6.876V0.611999H65.5828V8.484H66.7468V9H64.0468L59.2948 2.88V9H56.7148V8.484H57.8788ZM76.1301 8.484V9H66.7461V8.484H67.9101V0.611999H70.7901C72.2941 0.611999 73.4501 0.979999 74.2581 1.716C75.0661 2.444 75.4701 3.472 75.4701 4.8C75.4701 6.584 74.7661 7.812 73.3581 8.484H76.1301ZM74.0421 4.8C74.0421 2.88 72.9421 1.92 70.7421 1.92H69.3261V7.668H70.8981C71.9141 7.668 72.6901 7.428 73.2261 6.948C73.7701 6.46 74.0421 5.744 74.0421 4.8ZM85.0848 8.484V9H76.1328V8.484H77.9808C77.1408 8.036 76.7208 7.344 76.7208 6.408C76.7208 5.552 77.3408 4.788 78.5808 4.116C78.2928 3.78 78.0888 3.496 77.9688 3.264C77.8568 3.032 77.8008 2.744 77.8008 2.4C77.8008 1.76 78.0368 1.268 78.5088 0.924C78.9808 0.58 79.5368 0.408 80.1768 0.408C80.8168 0.408 81.3608 0.572 81.8088 0.9C82.2568 1.228 82.4808 1.688 82.4808 2.28C82.4808 2.712 82.3128 3.092 81.9768 3.42C81.6488 3.74 81.1448 4.068 80.4648 4.404C81.2088 5.308 81.7288 5.916 82.0248 6.228C82.3368 5.788 82.5608 5.312 82.6968 4.8L83.6808 5.496C83.4408 6.12 83.1728 6.652 82.8768 7.092C83.2528 7.468 83.7288 7.932 84.3048 8.484H85.0848ZM78.0528 6.468C78.0528 6.828 78.2048 7.124 78.5088 7.356C78.8128 7.58 79.2048 7.692 79.6848 7.692C80.1728 7.692 80.6808 7.492 81.2088 7.092C80.2408 6.06 79.6088 5.352 79.3128 4.968C78.4728 5.44 78.0528 5.94 78.0528 6.468ZM80.1648 1.476C79.9008 1.476 79.6608 1.56 79.4448 1.728C79.2368 1.896 79.1328 2.12 79.1328 2.4C79.1328 2.672 79.3408 3.056 79.7568 3.552C80.3008 3.312 80.6768 3.112 80.8848 2.952C81.1008 2.792 81.2088 2.616 81.2088 2.424C81.2088 2.104 81.1008 1.868 80.8848 1.716C80.6768 1.556 80.4368 1.476 80.1648 1.476ZM82.0728 7.992C81.8008 8.208 81.5448 8.372 81.3048 8.484H82.5648L82.0728 7.992ZM85.6288 8.484V0.611999H87.0448V4.704L90.8848 0.611999H92.6848L89.3128 4.284L92.3608 8.496V8.484H93.5248V9H91.0528L88.2688 5.328L87.0448 6.648V9H84.4648V8.484H85.6288ZM94.0781 8.484V0.611999H95.4941L100.366 6.876V0.611999H101.782V8.484H102.946V9H100.246L95.4941 2.88V9H92.9141V8.484H94.0781ZM112.161 8.484V9H102.945V8.484H105.429C104.477 7.82 104.001 6.768 104.001 5.328V0.611999H105.417V5.268C105.417 6.036 105.609 6.644 105.993 7.092C106.377 7.54 106.897 7.764 107.553 7.764C108.209 7.764 108.729 7.54 109.113 7.092C109.497 6.644 109.689 6.036 109.689 5.268V0.611999H111.105V5.328C111.105 6.776 110.625 7.828 109.665 8.484H112.161ZM119.404 8.484V9H112.156V8.484H115.072V1.908H112.528V0.611999H119.032V1.908H116.488V8.484H119.404ZM126.958 8.484V9H119.398V8.484H120.934C120.55 8.284 120.198 8.036 119.878 7.74L120.766 6.672C121.614 7.408 122.494 7.776 123.406 7.776C123.862 7.776 124.222 7.68 124.486 7.488C124.758 7.288 124.894 7.028 124.894 6.708C124.894 6.38 124.766 6.128 124.51 5.952C124.262 5.768 123.83 5.604 123.214 5.46C122.598 5.308 122.13 5.172 121.81 5.052C121.49 4.924 121.206 4.76 120.958 4.56C120.462 4.184 120.214 3.608 120.214 2.832C120.214 2.056 120.494 1.46 121.054 1.044C121.622 0.62 122.322 0.408 123.154 0.408C123.69 0.408 124.222 0.496 124.75 0.672C125.278 0.848 125.734 1.096 126.118 1.416L125.362 2.484C125.114 2.26 124.778 2.076 124.354 1.932C123.93 1.788 123.51 1.716 123.094 1.716C122.686 1.716 122.35 1.8 122.086 1.968C121.822 2.136 121.69 2.392 121.69 2.736C121.69 3.072 121.822 3.332 122.086 3.516C122.35 3.692 122.91 3.884 123.766 4.092C124.63 4.3 125.278 4.592 125.71 4.968C126.15 5.344 126.37 5.872 126.37 6.552C126.37 7.376 126.066 8.02 125.458 8.484H126.958ZM128.121 8.484V0.611999H134.013V1.944H129.537V4.164H133.557V5.424H129.537V7.668H134.157V8.484H135.321V9H126.957V8.484H128.121ZM135.973 8.484V0.611999H137.389L142.261 6.876V0.611999H143.677V8.484H144.841V9H142.141L137.389 2.88V9H134.809V8.484H135.973Z" fill="#1E2245"/>
</svg>
