<svg width="193" height="12" viewBox="0 0 193 12" fill="none" xmlns="http://www.w3.org/2000/svg">
<path d="M9.71088 11.312V12H0.046875V11.312H1.59888V0.815999H9.05488L9.03888 2.576H3.48688V5.648H8.44688V7.392H3.48688V11.312H9.71088ZM19.7991 11.312V12H9.70312V11.312H11.2551V0.815999H13.1431V10.208H18.2471V11.312H19.7991ZM32.2056 11.312V12H18.7656V11.312H22.4296C21.555 10.8107 20.8616 10.1227 20.3496 9.248C19.8483 8.37333 19.5976 7.39733 19.5976 6.32C19.5976 4.67733 20.163 3.30667 21.2936 2.208C22.4243 1.09867 23.8216 0.544 25.4856 0.544C27.1496 0.544 28.547 1.09867 29.6776 2.208C30.8083 3.30667 31.3736 4.67733 31.3736 6.32C31.3736 7.38667 31.1176 8.36267 30.6056 9.248C30.1043 10.1333 29.4163 10.8213 28.5416 11.312H32.2056ZM28.2856 3.456C27.5283 2.66667 26.595 2.272 25.4856 2.272C24.3763 2.272 23.4376 2.66667 22.6696 3.456C21.9123 4.24533 21.5336 5.20533 21.5336 6.336C21.5336 7.456 21.9123 8.41067 22.6696 9.2C23.4376 9.98933 24.3763 10.384 25.4856 10.384C26.595 10.384 27.5283 9.98933 28.2856 9.2C29.0536 8.41067 29.4376 7.456 29.4376 6.336C29.4376 5.20533 29.0536 4.24533 28.2856 3.456ZM42.2831 11.312V12H32.2031V11.312H34.2511C33.7391 11.0453 33.2698 10.7147 32.8431 10.32L34.0271 8.896C35.1578 9.87733 36.3311 10.368 37.5471 10.368C38.1551 10.368 38.6351 10.24 38.9871 9.984C39.3498 9.71733 39.5311 9.37067 39.5311 8.944C39.5311 8.50667 39.3605 8.17067 39.0191 7.936C38.6885 7.69067 38.1125 7.472 37.2911 7.28C36.4698 7.07733 35.8458 6.896 35.4191 6.736C34.9925 6.56533 34.6138 6.34667 34.2831 6.08C33.6218 5.57867 33.2911 4.81067 33.2911 3.776C33.2911 2.74133 33.6645 1.94667 34.4111 1.392C35.1685 0.826666 36.1018 0.544 37.2111 0.544C37.9258 0.544 38.6351 0.661333 39.3391 0.896C40.0431 1.13067 40.6511 1.46133 41.1631 1.888L40.1551 3.312C39.8245 3.01333 39.3765 2.768 38.8111 2.576C38.2458 2.384 37.6858 2.288 37.1311 2.288C36.5871 2.288 36.1391 2.4 35.7871 2.624C35.4351 2.848 35.2591 3.18933 35.2591 3.648C35.2591 4.096 35.4351 4.44267 35.7871 4.688C36.1391 4.92267 36.8858 5.17867 38.0271 5.456C39.1791 5.73333 40.0431 6.12267 40.6191 6.624C41.2058 7.12533 41.4991 7.82933 41.4991 8.736C41.4991 9.83467 41.0938 10.6933 40.2831 11.312H42.2831ZM51.9453 11.312V12H42.2812V11.312H46.1693V2.544H42.7773V0.815999H51.4493V2.544H48.0573V11.312H51.9453ZM63.9855 11.312V12H60.5295L57.8575 8.24H55.3775V12H51.9375V11.312H53.4895V0.815999H57.6495C59.3562 0.815999 60.5775 1.104 61.3135 1.68C62.0495 2.256 62.4175 3.17867 62.4175 4.448C62.4175 6.29333 61.6122 7.456 60.0015 7.936L62.4335 11.312H63.9855ZM57.7295 6.528C58.7962 6.528 59.5215 6.36267 59.9055 6.032C60.2895 5.70133 60.4815 5.17333 60.4815 4.448C60.4815 3.712 60.2842 3.21067 59.8895 2.944C59.4948 2.66667 58.7908 2.528 57.7775 2.528H55.3775V6.528H57.7295ZM77.0021 11.312V12H73.4341L72.3141 9.456H66.7141L65.5941 12H62.0261V11.312H63.8821L68.5061 0.815999H70.5221L75.1461 11.312H77.0021ZM71.5461 7.712L69.5141 3.104L67.4821 7.712H71.5461ZM77.0051 11.312V0.815999H78.8931L85.3891 9.168V0.815999H87.2771V11.312H88.8291V12H85.2291L78.8931 3.84V12H75.4531V11.312H77.0051ZM101.34 11.312V12H88.8281V11.312H90.3801V0.815999H94.2201C96.2255 0.815999 97.7668 1.30667 98.8441 2.288C99.9215 3.25867 100.46 4.62933 100.46 6.4C100.46 8.77867 99.5215 10.416 97.6441 11.312H101.34ZM98.5561 6.4C98.5561 3.84 97.0895 2.56 94.1561 2.56H92.2681V10.224H94.3641C95.7188 10.224 96.7535 9.904 97.4681 9.264C98.1935 8.61333 98.5561 7.65867 98.5561 6.4ZM113.28 11.312V12H101.344V11.312H103.808C102.688 10.7147 102.128 9.792 102.128 8.544C102.128 7.40267 102.954 6.384 104.608 5.488C104.224 5.04 103.952 4.66133 103.792 4.352C103.642 4.04267 103.568 3.65867 103.568 3.2C103.568 2.34667 103.882 1.69067 104.512 1.232C105.141 0.773333 105.882 0.544 106.736 0.544C107.589 0.544 108.314 0.762666 108.912 1.2C109.509 1.63733 109.808 2.25067 109.808 3.04C109.808 3.616 109.584 4.12267 109.136 4.56C108.698 4.98667 108.026 5.424 107.12 5.872C108.112 7.07733 108.805 7.888 109.2 8.304C109.616 7.71733 109.914 7.08267 110.096 6.4L111.408 7.328C111.088 8.16 110.73 8.86933 110.336 9.456C110.837 9.95733 111.472 10.576 112.24 11.312H113.28ZM103.904 8.624C103.904 9.104 104.106 9.49867 104.512 9.808C104.917 10.1067 105.44 10.256 106.08 10.256C106.73 10.256 107.408 9.98933 108.112 9.456C106.821 8.08 105.978 7.136 105.584 6.624C104.464 7.25333 103.904 7.92 103.904 8.624ZM106.72 1.968C106.368 1.968 106.048 2.08 105.76 2.304C105.482 2.528 105.344 2.82667 105.344 3.2C105.344 3.56267 105.621 4.07467 106.176 4.736C106.901 4.416 107.402 4.14933 107.68 3.936C107.968 3.72267 108.112 3.488 108.112 3.232C108.112 2.80533 107.968 2.49067 107.68 2.288C107.402 2.07467 107.082 1.968 106.72 1.968ZM109.264 10.656C108.901 10.944 108.56 11.1627 108.24 11.312H109.92L109.264 10.656ZM114.005 11.312V0.815999H115.893V6.272L121.013 0.815999H123.413L118.917 5.712L122.981 11.328V11.312H124.533V12H121.237L117.525 7.104L115.893 8.864V12H112.453V11.312H114.005ZM125.271 11.312V0.815999H127.159L133.655 9.168V0.815999H135.543V11.312H137.095V12H133.495L127.159 3.84V12H123.719V11.312H125.271ZM149.382 11.312V12H137.094V11.312H140.406C139.136 10.4267 138.502 9.024 138.502 7.104V0.815999H140.39V7.024C140.39 8.048 140.646 8.85867 141.158 9.456C141.67 10.0533 142.363 10.352 143.238 10.352C144.112 10.352 144.806 10.0533 145.318 9.456C145.83 8.85867 146.086 8.048 146.086 7.024V0.815999H147.974V7.104C147.974 9.03467 147.334 10.4373 146.054 11.312H149.382ZM159.039 11.312V12H149.375V11.312H153.263V2.544H149.871V0.815999H158.543V2.544H155.151V11.312H159.039ZM169.111 11.312V12H159.031V11.312H161.079C160.567 11.0453 160.098 10.7147 159.671 10.32L160.855 8.896C161.986 9.87733 163.159 10.368 164.375 10.368C164.983 10.368 165.463 10.24 165.815 9.984C166.178 9.71733 166.359 9.37067 166.359 8.944C166.359 8.50667 166.189 8.17067 165.847 7.936C165.517 7.69067 164.941 7.472 164.119 7.28C163.298 7.07733 162.674 6.896 162.247 6.736C161.821 6.56533 161.442 6.34667 161.111 6.08C160.45 5.57867 160.119 4.81067 160.119 3.776C160.119 2.74133 160.493 1.94667 161.239 1.392C161.997 0.826666 162.93 0.544 164.039 0.544C164.754 0.544 165.463 0.661333 166.167 0.896C166.871 1.13067 167.479 1.46133 167.991 1.888L166.983 3.312C166.653 3.01333 166.205 2.768 165.639 2.576C165.074 2.384 164.514 2.288 163.959 2.288C163.415 2.288 162.967 2.4 162.615 2.624C162.263 2.848 162.087 3.18933 162.087 3.648C162.087 4.096 162.263 4.44267 162.615 4.688C162.967 4.92267 163.714 5.17867 164.855 5.456C166.007 5.73333 166.871 6.12267 167.447 6.624C168.034 7.12533 168.327 7.82933 168.327 8.736C168.327 9.83467 167.922 10.6933 167.111 11.312H169.111ZM170.661 11.312V0.815999H178.517V2.592H172.549V5.552H177.909V7.232H172.549V10.224H178.709V11.312H180.261V12H169.109V11.312H170.661ZM181.13 11.312V0.815999H183.018L189.514 9.168V0.815999H191.402V11.312H192.954V12H189.354L183.018 3.84V12H179.578V11.312H181.13Z" fill="#1E2245"/>
</svg>
