<svg width="24" height="24" viewBox="0 0 24 24" fill="none" xmlns="http://www.w3.org/2000/svg">
<g clip-path="url(#clip0_191_6)">
<path fill-rule="evenodd" clip-rule="evenodd" d="M12 2C13.0688 2 14.165 2.0275 15.2275 2.0725L16.4825 2.1325L17.6838 2.20375L18.8088 2.28L19.8362 2.36C20.9515 2.44486 22.001 2.92054 22.7999 3.70325C23.5989 4.48596 24.096 5.52549 24.2038 6.63875L24.2537 7.17L24.3475 8.3075C24.435 9.48625 24.5 10.7713 24.5 12C24.5 13.2287 24.435 14.5138 24.3475 15.6925L24.2537 16.83L24.2038 17.3612C24.096 18.4747 23.5987 19.5144 22.7995 20.2971C22.0003 21.0799 20.9505 21.5554 19.835 21.64L18.81 21.7187L17.685 21.7962L16.4825 21.8675L15.2275 21.9275C14.1523 21.9741 13.0762 21.9982 12 22C10.9238 21.9982 9.84771 21.9741 8.7725 21.9275L7.5175 21.8675L6.31625 21.7962L5.19125 21.7187L4.16375 21.64C3.04852 21.5551 1.999 21.0795 1.20006 20.2967C0.401111 19.514 -0.0960115 18.4745 -0.20375 17.3612L-0.25375 16.83L-0.3475 15.6925C-0.442709 14.4639 -0.493575 13.2323 -0.5 12C-0.5 10.7713 -0.435 9.48625 -0.3475 8.3075L-0.25375 7.17L-0.20375 6.63875C-0.0960534 5.52569 0.400889 4.48632 1.19958 3.70363C1.99827 2.92095 3.04749 2.44515 4.1625 2.36L5.18875 2.28L6.31375 2.20375L7.51625 2.1325L8.77125 2.0725C9.84688 2.02591 10.9234 2.00174 12 2ZM9.5 8.96875V15.0313C9.5 15.6088 10.125 15.9687 10.625 15.6812L15.875 12.65C15.9892 12.5842 16.0841 12.4895 16.1501 12.3754C16.2161 12.2613 16.2508 12.1318 16.2508 12C16.2508 11.8682 16.2161 11.7387 16.1501 11.6246C16.0841 11.5105 15.9892 11.4158 15.875 11.35L10.625 8.32C10.5109 8.25415 10.3816 8.2195 10.2499 8.21952C10.1182 8.21954 9.98882 8.25424 9.87479 8.32012C9.76076 8.386 9.66609 8.48075 9.6003 8.59483C9.53451 8.70891 9.49992 8.83831 9.5 8.97V8.96875Z" fill="white"/>
</g>
<defs>
<clipPath id="clip0_191_6">
<rect width="24" height="24" fill="white"/>
</clipPath>
</defs>
</svg>
